<svg width="170" height="77" viewBox="0 0 170 77" fill="none" xmlns="http://www.w3.org/2000/svg">
<rect width="170" height="77" rx="10" fill="#105492"/>
<path d="M51.64 22.72C47.36 22.72 45.36 25.52 45.36 29.76V44.24C45.36 48.48 47.36 51.28 51.64 51.28C55.96 51.28 57.96 48.48 57.96 44.24V40.76H55V44.4C55 46.92 54 48.44 51.72 48.44C49.48 48.44 48.44 46.92 48.44 44.4V29.6C48.44 27.08 49.48 25.56 51.72 25.56C54 25.56 55 27.08 55 29.6V32.28H57.96V29.76C57.96 25.52 55.96 22.72 51.64 22.72ZM60.7953 23V51H63.9153V39.96H66.6753C71.1153 39.96 73.1953 37.64 73.1953 33.2V29.84C73.1953 25.6 71.3153 23 66.9153 23H60.7953ZM63.9153 37.16V25.84H66.9153C69.1953 25.84 70.1153 27.12 70.1153 29.68V33.4C70.1153 36.08 68.9953 37.16 66.6753 37.16H63.9153ZM86.0391 28.72V51H88.8391V23H85.3591L80.8791 36.16L78.3991 43.88V23H75.6391V51H78.8791L82.9991 38.08L86.0391 28.72ZM102.246 45.36L103.326 51H106.446L101.086 23H96.5663L91.2063 51H94.0863L95.1663 45.36H102.246ZM98.6463 26.52L101.806 42.68H95.5663L98.6463 26.52ZM125.721 54.84V48.24H123.601V23H112.361L111.281 44.16C111.201 45.88 111.001 47.16 110.041 48.24H108.241V54.84H111.241V51H122.681V54.84H125.721ZM115.241 25.84H120.441V48.24H113.041C113.921 47.32 114.201 46.12 114.321 44.12L115.241 25.84Z" fill="white"/>
</svg>
